<svg xmlns="http://www.w3.org/2000/svg" viewBox="0 0 309.82 46.975"><defs><style>.a{fill:#506175;}.b{fill:#7d97b5;}.c{fill:#fff;}</style></defs><g transform="translate(-793 -898.025)"><path class="a" d="M0,0H32.4L22.739,14.212l9.664,10.8H0Z" transform="translate(1070.417 919.987)"/><path class="a" d="M0,0H32.4L22.739,14.212l9.664,10.8H0Z" transform="translate(825.403 945) rotate(180)"/><g transform="translate(808.917 898.025)"><path class="b" d="M138.864,0C93.271,0,50.332,3.507,17.82,9.858,11.374,11.09,5.4,12.512,0,13.934V43.507c7.2-2.37,17.725-5.024,32.7-7.488,29.479-4.929,67.11-7.583,106.162-7.583s76.683,2.749,106.162,7.583c15.071,2.464,25.5,5.119,32.7,7.488V13.934c-5.4-1.422-11.375-2.844-17.82-4.076C227.4,3.507,184.456,0,138.864,0Z"/><g transform="translate(16.303 7.014)"><path class="c" d="M24.4,19.548V31.586a16.478,16.478,0,0,1-1.232,1.422c-1.611.284-3.128.569-4.739.853a13.932,13.932,0,0,0-1.232-.948V20.875a16.477,16.477,0,0,1,1.232-1.422c1.611-.284,3.128-.569,4.739-.853A6.085,6.085,0,0,1,24.4,19.548Zm-2.749,1.706a12.19,12.19,0,0,0-1.8.379l-.284.284v9c.095.095.19.095.284.19a12.189,12.189,0,0,0,1.8-.379l.284-.284v-9C21.845,21.444,21.75,21.349,21.655,21.254Z" transform="translate(-17.2 -7.984)"/><path class="c" d="M29,30.718V18.68a16.477,16.477,0,0,1,1.232-1.422c1.611-.284,3.223-.569,4.739-.758a13.933,13.933,0,0,0,1.232.948v2.464l.284.853c-1.043.19-1.991.284-3.033.474.095-.284.19-.664.284-.948v-.948l-.284-.284c-.569.095-1.232.19-1.8.284l-.284.284v9l.284.284c.569-.095,1.232-.19,1.8-.284l.284-.284V25.789c-.19,0-.474.095-.664.095-.19-.758-.379-1.517-.569-2.37,1.327-.19,2.559-.474,3.886-.664-.095.379-.19.664-.284,1.043v5.592a16.478,16.478,0,0,1-1.232,1.422c-1.611.284-3.223.569-4.739.758C29.853,31.382,29.474,31.1,29,30.718Z" transform="translate(-17.815 -7.874)"/><path class="c" d="M40.8,15.548c2.085-.284,4.171-.664,6.256-.948.379.379.853.664,1.232,1.043V27.681a16.946,16.946,0,0,1-1.232,1.327c-2.085.284-4.171.664-6.256.948.095-.284.19-.664.284-.948V16.4A8.948,8.948,0,0,1,40.8,15.548Zm2.749,11.375.284.284c.569-.095,1.232-.19,1.8-.284l.284-.284v-9l-.284-.284c-.569.095-1.232.19-1.8.284l-.284.284Z" transform="translate(-18.43 -7.775)"/><path class="c" d="M52.8,28.256c.095-.284.19-.664.284-.948V14.7l-.284-.853c2.37-.284,4.834-.664,7.2-.948.19.853.284,1.706.474,2.559-.284-.095-.664-.095-.948-.19-1.232.19-2.464.284-3.7.474l-.284.284v2.938l.284.284c.379-.095.853-.095,1.232-.19.284-.095.664-.284.948-.379v3.033c-.284-.095-.664-.095-.948-.19-.379.095-.853.095-1.232.19L55.549,22v3.128l.284.284c1.232-.19,2.464-.284,3.7-.474.284-.095.664-.284.948-.379-.19.948-.284,1.8-.474,2.749C57.634,27.592,55.264,27.876,52.8,28.256Z" transform="translate(-19.056 -7.687)"/><path class="c" d="M67.338,26.376c-.948.095-1.991.19-2.938.379.095-.284.19-.664.284-.948V13.2l-.284-.853c.853-.095,1.8-.19,2.654-.284,1.137,2.749,2.37,5.592,3.507,8.341V12.537l-.284-.853c1.043-.095,1.991-.19,3.033-.284-.095.284-.19.664-.284.948V24.955l.284.853c-.948.095-1.8.19-2.749.284-1.137-2.749-2.37-5.592-3.507-8.341v7.867A6.528,6.528,0,0,1,67.338,26.376Z" transform="translate(-19.66 -7.608)"/><path class="c" d="M93.863,23.913c-1.043.095-1.991.19-3.033.19.095-.19.095-.379.19-.569-.19-.758-.379-1.422-.569-2.18l-.284-.284c-.758.095-1.611.095-2.37.19l-.284.284-.569,2.275c.095.19.095.379.19.569-1.043.095-1.991.19-3.033.284.19-.379.284-.664.474-1.043.948-4.265,1.991-8.626,2.938-12.891l-.284-.853c1.137-.095,2.18-.19,3.318-.284l-.284.853c.948,4.076,1.991,8.247,2.938,12.417A3.2,3.2,0,0,1,93.863,23.913Zm-5.5-5.119c.474,0,.948-.095,1.422-.095l.19-.19c-.284-1.517-.664-3.033-.948-4.55-.284,1.517-.664,3.128-.948,4.645C88.176,18.7,88.271,18.794,88.365,18.794Z" transform="translate(-20.687 -7.515)"/><path class="c" d="M97.8,9.179c2.085-.19,4.171-.284,6.351-.379.379.379.853.758,1.232,1.137V21.975l-1.232,1.232c-2.085.095-4.171.284-6.351.379.095-.284.19-.664.284-.948V10.032A3.013,3.013,0,0,1,97.8,9.179Zm2.654,11.564.284.284c.569,0,1.232-.095,1.8-.095l.284-.284v-9l-.284-.284c-.569,0-1.232.095-1.8.095l-.284.284Z" transform="translate(-21.401 -7.473)"/><path class="c" d="M115.166,21.749a2.768,2.768,0,0,1,.19.853c-1.137.095-2.18.095-3.318.19a2.768,2.768,0,0,0,.19-.853c-.853-3.981-1.706-7.962-2.559-12.038-.19-.474-.379-.948-.569-1.327,1.043-.095,1.991-.095,3.033-.19-.095.19-.095.379-.19.569.569,2.938,1.137,5.972,1.706,8.91l1.706-9.1c-.095-.19-.095-.379-.19-.569,1.043,0,1.991-.095,3.033-.095l-.569,1.422C116.873,13.5,116.019,17.579,115.166,21.749Z" transform="translate(-21.99 -7.436)"/><path class="c" d="M122.2,22.3c.095-.284.19-.664.284-.948V8.743L122.2,7.89c2.37-.095,4.834-.19,7.2-.19.19.853.284,1.8.474,2.654-.284-.095-.664-.19-.948-.284-1.232,0-2.464.095-3.7.095l-.284.284v2.938l.284.284h1.232c.284-.095.664-.19.948-.284V16.42c-.284-.095-.663-.19-.948-.284h-1.232l-.284.284v3.128l.284.284c1.232,0,2.464-.095,3.7-.095.284-.095.663-.19.948-.284-.19.948-.284,1.8-.474,2.749C126.939,22.108,124.57,22.2,122.2,22.3Z" transform="translate(-22.673 -7.416)"/><path class="c" d="M136.733,21.9c-1.043,0-1.991,0-3.033.095.095-.284.19-.569.284-.948V8.443c-.095-.284-.19-.569-.284-.948h2.654c1.137,2.938,2.37,5.782,3.507,8.72V8.348c-.095-.284-.19-.664-.284-.948h3.033c-.095.284-.19.664-.284.948V20.955c.095.284.19.569.284.948h-2.749c-1.137-2.938-2.37-5.782-3.507-8.72v7.867A3.367,3.367,0,0,1,136.733,21.9Z" transform="translate(-23.273 -7.4)"/><path class="c" d="M155.22,10.254c-.379-.095-.664-.19-1.043-.284h-1.8l-.284.284V21.06c.095.284.19.569.284.948h-3.033c.095-.284.19-.569.284-.948V10.254l-.284-.284h-1.9c-.284.095-.664.19-.948.284.19-.853.284-1.8.474-2.654,2.559,0,5.213,0,7.773.095C154.936,8.453,155.031,9.306,155.22,10.254Z" transform="translate(-23.94 -7.41)"/><path class="c" d="M166.688,8.637V20.96c-.379.379-.853.758-1.232,1.137-1.611,0-3.223-.095-4.834-.095-.379-.379-.758-.853-1.137-1.232V8.448c-.095-.284-.19-.664-.284-.948,1.043,0,1.991,0,3.033.095-.095.284-.19.569-.284.948V19.348l.284.284h1.9l.284-.284V8.543c-.095-.284-.19-.664-.284-.948,1.043,0,1.991.095,3.033.095A2.926,2.926,0,0,0,166.688,8.637Z" transform="translate(-24.602 -7.405)"/><path class="c" d="M171.3,22.308l.284-.853V8.848c-.095-.284-.19-.664-.284-.948,2.085.095,4.171.19,6.351.284l1.232,1.232v6.54c-.379.379-.853.758-1.232,1.137.379,1.517.664,3.033,1.043,4.55.095.284.284.664.379.948-1.043,0-1.991-.095-3.033-.095.095-.284.095-.569.19-.853-.379-1.422-.663-2.938-1.043-4.36-.095-.095-.095-.19-.19-.19h-.758l-.284.284v4.265c.095.284.19.569.284.948A14.717,14.717,0,0,0,171.3,22.308Zm4.834-7.678.284-.284v-3.6l-.284-.284c-.664,0-1.232-.095-1.9-.095l-.284.284v3.6l.284.284A13.35,13.35,0,0,0,176.134,14.63Z" transform="translate(-25.232 -7.426)"/><path class="c" d="M183.4,22.8c.095-.284.19-.569.284-.948V9.248c-.095-.284-.19-.664-.284-.948,2.37.095,4.834.284,7.2.379.19.853.284,1.8.474,2.654a3.961,3.961,0,0,1-.948-.379c-1.232-.095-2.464-.19-3.7-.19l-.284.284v2.938l.284.284a5.4,5.4,0,0,1,1.232.095c.284-.095.664-.19.948-.284v3.033c-.284-.095-.663-.284-.948-.379-.379,0-.853-.095-1.232-.095l-.284.284v3.128l.284.284c1.232.095,2.464.19,3.7.19a3.368,3.368,0,0,1,.948-.19c-.19.853-.284,1.8-.474,2.654A61.481,61.481,0,0,1,183.4,22.8Z" transform="translate(-25.863 -7.447)"/><path class="c" d="M202.2,9.7c2.085.19,4.171.379,6.351.569.379.474.853.853,1.232,1.327v4.739a12.007,12.007,0,0,1-1.232,1.043c.379.474.853.853,1.232,1.327v4.929a12.007,12.007,0,0,1-1.232,1.043c-2.085-.19-4.171-.379-6.351-.569.095-.284.19-.569.284-.948V10.553Zm2.654,5.782.284.284c.569.095,1.232.095,1.8.19l.284-.284V12.733l-.284-.284c-.569-.095-1.232-.095-1.8-.19l-.284.284Zm2.18,2.938c-.569-.095-1.232-.095-1.8-.19l-.284.284v3.128l.284.284c.569.095,1.232.095,1.8.19l.284-.284V18.7Z" transform="translate(-26.843 -7.52)"/><path class="c" d="M221.788,12.506V24.829c-.379.379-.853.664-1.232,1.043-1.611-.19-3.223-.379-4.834-.474-.379-.474-.758-.853-1.137-1.327V11.748c-.095-.284-.19-.664-.284-.948.948.095,1.991.19,2.938.284l-.284.853V22.743l.284.284c.663.095,1.232.095,1.9.19.095-.095.19-.19.284-.19V12.222c-.095-.284-.19-.664-.284-.948,1.043.095,1.991.19,3.033.284A2.838,2.838,0,0,0,221.788,12.506Z" transform="translate(-27.474 -7.577)"/><path class="c" d="M229.338,26.787c-.948-.095-1.991-.19-2.938-.379l.284-.853V12.948c-.095-.284-.19-.664-.284-.948.948.095,1.991.19,2.938.379l-.284.853V25.839C229.149,26.218,229.244,26.5,229.338,26.787Z" transform="translate(-28.105 -7.64)"/><path class="c" d="M240.7,28.256c-2.37-.284-4.834-.664-7.2-.948l.284-.853V13.848c-.095-.284-.19-.664-.284-.948.948.095,1.991.284,2.938.379l-.284.853V24.938l.284.284c1.232.19,2.464.284,3.7.474.284,0,.663-.095.948-.095C240.988,26.549,240.8,27.4,240.7,28.256Z" transform="translate(-28.475 -7.687)"/><path class="c" d="M245,14.5c2.085.284,4.171.569,6.256.948a16.947,16.947,0,0,0,1.232,1.327V28.813c-.379.379-.853.664-1.232,1.043-2.085-.284-4.171-.664-6.256-.948l.284-.853V15.448C245.19,15.069,245.095,14.784,245,14.5Zm2.654,12.038.284.284c.569.095,1.232.19,1.8.284l.284-.284v-9l-.284-.284c-.569-.095-1.232-.19-1.8-.284l-.284.284Z" transform="translate(-29.074 -7.77)"/><path class="c" d="M257,30.708l.284-.853V17.248c-.095-.284-.19-.664-.284-.948,2.37.379,4.739.758,7.2,1.232.19.948.284,1.8.474,2.749-.284-.19-.664-.284-.948-.474-1.232-.19-2.464-.379-3.7-.664l-.284.284v2.938l.284.284c.379.095.758.095,1.232.19.284-.095.569-.095.948-.19v3.033a8.808,8.808,0,0,0-.948-.474c-.379-.095-.758-.095-1.232-.19-.095.095-.19.19-.284.19v3.128l.284.284c1.232.19,2.464.379,3.7.664.284,0,.664-.095.948-.095-.19.853-.284,1.8-.474,2.654C261.739,31.466,259.37,31.087,257,30.708Z" transform="translate(-29.7 -7.864)"/><path class="c" d="M268.4,32.608l.284-.853V19.148c-.095-.284-.19-.664-.284-.948l6.256,1.137a16.477,16.477,0,0,0,1.232,1.422V27.3a13.933,13.933,0,0,1-1.232.948c.379,1.517.664,3.128,1.043,4.645.095.379.284.664.379,1.043-.948-.19-1.991-.379-2.938-.569.095-.284.095-.569.19-.853-.379-1.517-.664-3.033-1.043-4.55-.095-.095-.095-.19-.19-.284a2.087,2.087,0,0,0-.758-.095c-.095.095-.19.19-.284.19v4.265c.095.284.19.664.284.948A16.655,16.655,0,0,1,268.4,32.608Zm4.834-6.919c.095-.095.19-.095.284-.19V21.9l-.284-.284a12.19,12.19,0,0,1-1.8-.379c-.095.095-.19.19-.284.19v3.6l.284.284C272,25.4,272.571,25.593,273.234,25.688Z" transform="translate(-30.294 -7.963)"/></g></g></g></svg>